<?xml version="1.0" encoding="UTF-8" standalone="no"?>
<!-- Created with Inkscape (http://www.inkscape.org/) -->

<svg
   xmlns:dc="http://purl.org/dc/elements/1.1/"
   xmlns:cc="http://creativecommons.org/ns#"
   xmlns:rdf="http://www.w3.org/1999/02/22-rdf-syntax-ns#"
   xmlns:svg="http://www.w3.org/2000/svg"
   xmlns="http://www.w3.org/2000/svg"
   xmlns:sodipodi="http://sodipodi.sourceforge.net/DTD/sodipodi-0.dtd"
   xmlns:inkscape="http://www.inkscape.org/namespaces/inkscape"
   width="210mm"
   height="297mm"
   viewBox="0 0 250 250"
   id="svg2"
   version="1.1"
   inkscape:version="0.91 r13725"
   sodipodi:docname="Visual_Studio_2013_Logo.svg">
  <defs
     id="defs4">
    <filter
       inkscape:label="Channel Transparency"
       style="color-interpolation-filters:sRGB;"
       id="filter3390">
      <feColorMatrix
         values="1 0 0 0 0 0 1 0 0 0 0 0 1 0 0 -10 -10 10 10 0 "
         in="SourceGraphic"
         result="colormatrix"
         id="feColorMatrix3392" />
      <feComposite
         in="colormatrix"
         in2="SourceGraphic"
         operator="in"
         result="fbSourceGraphic"
         id="feComposite3394" />
      <feColorMatrix
         result="fbSourceGraphicAlpha"
         in="fbSourceGraphic"
         values="0 0 0 -1 0 0 0 0 -1 0 0 0 0 -1 0 0 0 0 1 0"
         id="feColorMatrix3396" />
      <feColorMatrix
         id="feColorMatrix3398"
         values="1 0 0 0 0 0 1 0 0 0 0 0 1 0 0 -10 -10 10 10 0 "
         in="fbSourceGraphic"
         result="colormatrix" />
      <feComposite
         id="feComposite3400"
         in2="fbSourceGraphic"
         in="colormatrix"
         operator="in"
         result="fbSourceGraphic" />
      <feColorMatrix
         result="fbSourceGraphicAlpha"
         in="fbSourceGraphic"
         values="0 0 0 -1 0 0 0 0 -1 0 0 0 0 -1 0 0 0 0 1 0"
         id="feColorMatrix3402" />
      <feColorMatrix
         id="feColorMatrix3404"
         values="1 0 0 0 0 0 1 0 0 0 0 0 1 0 0 -10 -10 10 10 0 "
         in="fbSourceGraphic"
         result="colormatrix" />
      <feComposite
         id="feComposite3406"
         in2="fbSourceGraphic"
         in="colormatrix"
         operator="in"
         result="composite1" />
    </filter>
  </defs>
  <sodipodi:namedview
     id="base"
     pagecolor="#ffffff"
     bordercolor="#666666"
     borderopacity="1.0"
     inkscape:pageopacity="0.0"
     inkscape:pageshadow="2"
     inkscape:zoom="0.35"
     inkscape:cx="-380.71429"
     inkscape:cy="634.28571"
     inkscape:document-units="px"
     inkscape:current-layer="layer1"
     showgrid="false"
     inkscape:window-width="1366"
     inkscape:window-height="745"
     inkscape:window-x="-8"
     inkscape:window-y="-8"
     inkscape:window-maximized="1" />
  <metadata
     id="metadata7">
    <rdf:RDF>
      <cc:Work
         rdf:about="">
        <dc:format>image/svg+xml</dc:format>
        <dc:type
           rdf:resource="http://purl.org/dc/dcmitype/StillImage" />
        <dc:title />
      </cc:Work>
    </rdf:RDF>
  </metadata>
  <g
     inkscape:label="Layer 1"
     inkscape:groupmode="layer"
     id="layer1">
    <g
       id="g4147"
       transform="matrix(0.125,0,0,0.125,54.642857,59.066926)"
       style="filter:url(#filter3390)">
      <path
         style="fill:#fefefe"
         d="m -414.28571,558.07648 0,-1034 1000,0 1000.00001,0 0,1034 0,1034.00002 -1000.00001,0 -1000,0 0,-1034.00002 z"
         id="path4151"
         inkscape:connector-curvature="0" />
      <path
         style="fill:#672079"
         d="M 1037.9417,1384.8186 C 1009.4916,1357.1768 841.76429,1194.4089 665.21429,1023.1121 488.66429,851.81528 334.86592,702.50038 323.44014,691.30128 c -11.42578,-11.1992 -21.40988,-20.2187 -22.1869,-20.0435 -0.77702,0.1753 -30.35366,22.3543 -65.72586,49.2868 -328.94821,250.4616 -412.18008,313.72712 -413.16761,314.05332 -0.63001,0.2081 -24.09548,-11.1865 -52.14548,-25.3215 l -51,-25.69992 -0.28224,-422.5 c -0.15523,-232.375 -0.0365,-423.8868 0.26376,-425.58177 0.52377,-2.95638 2.63817,-4.13628 51.96861,-29 42.78913,-21.56674 51.72712,-25.73276 53.23625,-24.81354 0.99749,0.60757 108.68862,82.47504 239.31362,181.9277 130.625,99.45267 238.2157,180.85556 239.09044,180.89532 0.87474,0.0398 34.62474,-32.08223 75,-71.3822 40.37526,-39.29998 216.67326,-210.97498 391.77326,-381.5 192.0055,-186.98871 319.21171,-310.15326 320.50001,-310.31699 2.6316,-0.33443 360.5786,143.07351 361.7585,144.93494 1.0672,1.68368 1.1292,1461.89246 0.062,1463.57246 -0.6172,0.9717 -359.9648,145.2641 -361.7675,145.2641 -0.2542,0 -23.7395,-22.616 -52.1895,-50.2579 z m -8.2274,-826.74212 c 0,-210.38736 -0.35,-332 -0.9556,-332 -1.0597,0 -436.13701,324.909 -439.91951,328.5251 l -2.3751,2.2706 2.3751,2.0244 c 5.0749,4.3257 439.41831,331.1293 440.12511,331.1539 0.4125,0.014 0.75,-149.374 0.75,-331.974 z M -16.52983,659.44468 C 42.17944,606.29728 91.557,561.52088 93.1981,559.94168 l 2.9838,-2.8713 -4.4838,-4.421 c -7.93998,-7.8289 -215.31733,-192.5729 -216.16532,-192.5729 -0.45017,0 -0.81849,89.1 -0.81849,198 0,132.1047 0.33476,198 1.00588,198 0.55323,0 49.04073,-43.4843 107.75,-96.6318 z"
         id="path4149"
         inkscape:connector-curvature="0" />
    </g>
  </g>
</svg>
