<svg
   xmlns="http://www.w3.org/2000/svg"
   viewBox="0 0 433.45111 438.44302"
>
    <path
       style="fill:#672079"
       d="m 341.62827,433.33345 c -7.11253,-6.91045 -49.04435,-47.60242 -93.18185,-90.42662 -44.1375,-42.8242 -82.58709,-80.15292 -85.44354,-82.9527 -2.85644,-2.7998 -5.35247,-5.05468 -5.54672,-5.01087 -0.19426,0.0438 -7.58842,5.58857 -16.43147,12.32169 -82.23705,62.6154 -103.04502,78.43178 -103.2919,78.51333 -0.1575,0.052 -6.02387,-2.79662 -13.03637,-6.33038 l -12.75,-6.42497 -0.0706,-105.625 c -0.0388,-58.09375 -0.009,-105.9717 0.0659,-106.39544 0.13094,-0.7391 0.65954,-1.03407 12.99215,-7.25 10.69728,-5.39169 12.93178,-6.43319 13.30906,-6.20339 0.24938,0.1519 27.17216,20.61876 59.82841,45.48193 32.65625,24.86316 59.55392,45.21389 59.77261,45.22383 0.21868,0.01 8.65618,-8.02056 18.75,-17.84555 10.09381,-9.825 54.16831,-52.74375 97.94331,-95.375 48.00138,-46.74718 79.80293,-77.53832 80.125,-77.57925 0.6579,-0.0836 90.14465,35.76838 90.43963,36.23373 0.2668,0.42092 0.2823,365.47312 0.0155,365.89311 -0.1543,0.24293 -89.9912,36.31603 -90.44188,36.31603 -0.0636,0 -5.93487,-5.654 -13.04737,-12.56448 z m -2.05685,-206.68552 c 0,-52.59684 -0.0875,-83 -0.2389,-83 -0.26493,0 -109.03425,81.22725 -109.97988,82.13128 l -0.59377,0.56764 0.59377,0.50611 c 1.26873,1.08142 109.85458,82.78232 110.03128,82.78847 0.10312,0.003 0.1875,-37.3435 0.1875,-82.9935 z m -261.56103,25.34205 c 14.67732,-13.28685 27.02171,-24.48095 27.43198,-24.87575 l 0.74595,-0.71783 -1.12095,-1.10525 c -1.98499,-1.95722 -53.82933,-48.14322 -54.04133,-48.14322 -0.11254,0 -0.20462,22.275 -0.20462,49.5 0,33.02618 0.0837,49.5 0.25147,49.5 0.13831,0 12.26018,-10.87108 26.9375,-24.15795 z" 
    />
</svg>
